# Blender v3.1.2 OBJ File: 'locker.blend'
# www.blender.org
v 0.500000 1.437500 -0.437500
v 0.500000 -0.437500 -0.437500
v 0.500000 1.437500 0.437500
v 0.500000 -0.437500 0.437500
v -0.500000 1.500000 -0.500000
v -0.500000 -0.500000 -0.500000
v -0.500000 1.500000 0.500000
v -0.500000 -0.500000 0.500000
v 0.500000 1.500000 -0.500000
v 0.500000 -0.500000 -0.500000
v 0.500000 1.500000 0.500000
v 0.500000 -0.500000 0.500000
v -0.437500 1.437500 -0.437500
v -0.437500 -0.437500 -0.437500
v -0.437500 1.437500 0.437500
v -0.437500 -0.437500 0.437500
vt 0.250000 0.250000
vt 0.250000 0.500000
vt 0.000000 0.500000
vt -0.000000 0.250000
vt 0.500000 0.500000
vt 0.500000 1.000000
vt 0.250000 1.000000
vt 0.250000 0.500000
vt 0.750000 0.500000
vt 0.750000 1.000000
vt 0.500000 1.000000
vt 0.500000 0.500000
vt 0.250000 0.500000
vt 0.250000 0.250000
vt 0.500000 0.250000
vt 0.500000 0.500000
vt 0.515625 0.265625
vt 0.734375 0.265625
vt 0.734375 0.484375
vt 0.515625 0.484375
vt 1.000000 0.500000
vt 1.000000 1.000000
vt 0.750000 1.000000
vt 0.750000 0.500000
vt 0.234375 0.984375
vt 0.234375 0.515625
vt 0.250000 0.500000
vt 0.250000 1.000000
vt 0.015625 0.515625
vt 0.015625 0.984375
vt 0.000000 1.000000
vt 0.000000 0.500000
vt 0.984375 0.015625
vt 0.984375 0.484375
vt 0.765625 0.484375
vt 0.765625 0.015625
vt 0.984375 0.015625
vt 0.984375 0.484375
vt 0.765625 0.484375
vt 0.765625 0.015625
vt 0.515625 0.265625
vt 0.734375 0.265625
vt 0.734375 0.484375
vt 0.515625 0.484375
vt 0.765625 0.484375
vt 0.765625 0.015625
vt 0.984375 0.015625
vt 0.984375 0.484375
vn 0.0000 1.0000 0.0000
vn 0.0000 0.0000 1.0000
vn -1.0000 0.0000 0.0000
vn 0.0000 -1.0000 0.0000
vn 0.0000 0.0000 -1.0000
vn 1.0000 0.0000 0.0000
s off
f 9/1/1 5/2/1 7/3/1 11/4/1
f 12/5/2 11/6/2 7/7/2 8/8/2
f 8/9/3 7/10/3 5/11/3 6/12/3
f 6/13/4 10/14/4 12/15/4 8/16/4
f 1/17/4 3/18/4 15/19/4 13/20/4
f 6/21/5 5/22/5 9/23/5 10/24/5
f 1/25/6 2/26/6 10/27/6 9/28/6
f 4/29/6 3/30/6 11/31/6 12/32/6
f 3/30/6 1/25/6 9/28/6 11/31/6
f 2/26/6 4/29/6 12/32/6 10/27/6
f 14/33/6 13/34/6 15/35/6 16/36/6
f 2/37/2 1/38/2 13/39/2 14/40/2
f 4/41/1 2/42/1 14/43/1 16/44/1
f 3/45/5 4/46/5 16/47/5 15/48/5
